<svg xmlns="http://www.w3.org/2000/svg" xml:space="preserve" style="fill-rule:evenodd;clip-rule:evenodd;stroke-linejoin:round;stroke-miterlimit:2" viewBox="0 0 480 480"><path d="M0 0h480v480H0z" style="fill:none"/><path d="M464.407 166.877a1.38 1.38 0 0 0-1.115-.567c-13.221-.003-212.743-.003-212.743-.003-13.627 1.16-24.096 10.216-31.852 26.056a49.026 49.026 0 0 1-6.135 9.51c-15.148 18.499-33.556 27.219-55.744 24.6-30.152-1.851-51.976-16.715-55.099-60.799l40.187-.019a24.655 24.655 0 0 0 9.7-1.994c15.065-6.425 23.613-17.538 24.211-35.364l-46.019.01a25.925 25.925 0 0 0-7.956 1.253c-16.568 5.295-25.717 16.518-28.356 32.948-1.997-17.395-12.621-26.645-28.199-32.199a27.707 27.707 0 0 0-9.126-1.629c-11.565-.102-43.107-.372-43.107-.372.364 21.847 11.284 33.303 29.092 36.745 1.306.252 2.631.392 3.96.419 7.618.174 39.78.835 39.78.835 4.316 68.245 31.456 120.438 86.132 153.264 49.815 30.753 103.776 45.517 169.097 16.467 62.594-25.729 100.044-72.172 113.386-142.727 8.66-2.338 12.676-6.463 6.945-14.337 6.288-2.508 7.056-6.486 2.961-12.097Z" style="fill:#303956"/><path d="M461.089 178.261c-.07-.039-75.077.691-95.924.895-4.112.04-8.188.763-12.062 2.141-6.652 2.376-16.461 6.78-20.968 13.264-9.068 10.866-9.659 22.694-9.139 44.726.31 82.88-64.593 99.184-105.868 101.939 37.256 13.285 77.626 14.558 123.63-5.901 62.595-25.729 100.044-72.172 113.386-142.727 8.661-2.338 12.676-6.463 6.945-14.337Z" style="fill:#fff;stroke:#303956;stroke-width:1px;stroke-linecap:round;stroke-miterlimit:1.5"/><path d="M276.751 222.462h-1.629v8.686a8.78 8.78 0 0 0 8.779 8.779h.02a8.666 8.666 0 0 0 8.666-8.666v-8.799h-1.629v8.506a7.046 7.046 0 0 1-7.045 7.046h-.001a7.162 7.162 0 0 1-7.161-7.162v-8.39Z" style="fill:#fff"/></svg>