<svg xmlns="http://www.w3.org/2000/svg" xml:space="preserve" style="fill-rule:evenodd;clip-rule:evenodd;stroke-linejoin:round;stroke-miterlimit:2" viewBox="0 0 529 72"><path d="M0 0h528.384v72H0z" style="fill:none"/><clipPath id="a"><path d="M0 0h528.384v72H0z"/></clipPath><g clip-path="url(#a)"><path d="M143.549 13.339a1.37 1.37 0 0 0-1.198-.705c-7.203-.013-67.004-.013-67.004-.013-4.178.355-7.42 3.05-9.854 7.766a23.022 23.022 0 0 1-4.864 6.367c-4.262 3.892-9.236 5.637-15.019 4.955-9.566-.588-16.49-5.303-17.48-19.289l11.736-.006a12.05 12.05 0 0 0 7.371-2.521c2.731-2.113 4.26-5.136 4.401-9.331L37.876.565a12.781 12.781 0 0 0-6.194 1.595c-3.485 1.945-5.492 5.066-6.165 9.255-.471-4.11-2.461-6.787-5.488-8.613a14.697 14.697 0 0 0-7.49-2.128L0 .565C.089 5.876 2.143 9.251 5.641 11.03a12.239 12.239 0 0 0 5.291 1.324c3.021.078 12.174.267 12.174.267 1.37 21.651 9.98 38.209 27.326 48.623 15.805 9.757 32.924 14.441 53.647 5.225 19.859-8.163 31.74-22.897 35.973-45.281 2.747-.742 4.021-2.051 2.203-4.549 1.788-.713 2.169-1.801 1.294-3.3Z" style="fill:#303956"/><path d="M142.142 16.413c-.021-.012-21.563.197-29.352.273a17.409 17.409 0 0 0-8.254 2.173c-1.308.723-2.545 1.631-3.306 2.725-2.876 3.448-3.064 7.2-2.899 14.19.098 26.294-20.493 31.467-33.587 32.341 11.819 4.214 24.627 4.618 39.222-1.873 19.859-8.162 31.74-22.897 35.972-45.28 2.748-.742 4.022-2.051 2.204-4.549Z" style="fill:#fff;stroke:#303956;stroke-width:1px;stroke-linecap:round;stroke-miterlimit:1.5"/><path d="M83.659 30.436h-.516v2.756a2.785 2.785 0 0 0 2.785 2.785h.006a2.75 2.75 0 0 0 2.75-2.75v-2.791h-.517v2.699a2.235 2.235 0 0 1-2.235 2.235h-.001a2.272 2.272 0 0 1-2.272-2.272v-2.662Z" style="fill:#fff"/><path d="M175.055 53.609h5.745l5.154-21.15c.591-2.69 1.128-5.214 1.557-8.276h.215c.537 3.062 1.02 5.586 1.61 8.272l5.047 21.154h5.745l7.355-35.218h-4.563l-3.705 19.166c-.698 3.76-1.288 7.52-1.879 11.548h-.215c-.805-4.028-1.664-7.841-2.523-11.548l-4.617-19.166h-4.51l-4.778 19.166a288.88 288.88 0 0 0-2.416 11.548h-.215c-.591-4.028-1.235-7.734-1.933-11.548l-3.597-19.166h-4.778l7.301 35.218ZM221.021 53.609h20.828v-3.805h-16.377V37.017h13.37v-3.806h-13.37V22.143h15.84v-3.752h-20.291v35.218ZM256.784 53.609h11.218c7.897 0 13.368-3.43 13.368-10.467 0-4.728-2.788-7.465-7.19-8.269v-.215c3.327-1.071 5.15-4.026 5.15-7.679 0-6.176-4.934-8.588-12.079-8.588h-10.467v35.218Zm4.45-20.237V21.928h5.426c5.48 0 8.273 1.558 8.273 5.642 0 3.599-2.471 5.802-8.488 5.802h-5.211Zm0 16.7v-13.27h6.124c6.178 0 9.616 1.988 9.616 6.34 0 4.727-3.546 6.93-9.616 6.93h-6.124ZM323.794 54.254c7.467 0 11.971-4.451 11.971-10.036 0-5.21-3.056-7.627-7.243-9.4l-4.997-2.148c-2.793-1.182-5.856-2.471-5.856-5.854 0-3.169 2.633-5.156 6.555-5.156 3.116 0 5.802 1.289 8.002 3.222l2.413-2.9c-2.466-2.467-6.117-4.236-10.415-4.236-6.447 0-11.058 3.967-11.058 9.338 0 5.103 3.753 7.627 7.136 9.077l5.05 2.202c3.331 1.504 5.856 2.632 5.856 6.231 0 3.437-2.74 5.746-7.36 5.746-3.761 0-7.358-1.611-9.878-4.243l-2.523 2.901c3.059 3.272 7.297 5.256 12.347 5.256ZM350.163 53.609h4.45V37.017h16.384v16.592h4.504V18.391h-4.504v14.766h-16.384V18.391h-4.45v35.218ZM398.702 33.907a202.617 202.617 0 0 0 3.49-11.872h.215c1.127 4.083 2.254 7.951 3.543 11.872l1.664 5.372h-10.576l1.664-5.372Zm-10.736 19.702h4.563l3.382-10.739h12.831l3.328 10.739h4.778L404.93 18.391h-5.046l-11.918 35.218ZM429.312 53.609h4.45V39.648h5.802c7.736 0 12.992-3.484 12.992-10.897 0-7.734-5.309-10.36-13.206-10.36h-10.038v35.218Zm4.45-17.606V21.982h5.05c6.178 0 9.294 1.665 9.294 6.769 0 4.996-2.954 7.252-9.079 7.252h-5.265ZM467.169 53.609h20.827v-3.805h-16.377V37.017h13.37v-3.806h-13.37V22.143h15.84v-3.752h-20.29v35.218ZM502.931 53.609h9.016c10.637 0 16.43-6.545 16.43-17.77 0-11.172-5.793-17.448-16.645-17.448h-8.801v35.218Zm4.45-3.644v-27.93h4.029c8.219 0 12.355 4.942 12.355 13.804 0 8.916-4.136 14.126-12.355 14.126h-4.029Z" style="fill:#303956;fill-rule:nonzero"/></g></svg>