<?xml version="1.0" encoding="UTF-8" standalone="no"?><!DOCTYPE svg PUBLIC "-//W3C//DTD SVG 1.1//EN" "http://www.w3.org/Graphics/SVG/1.1/DTD/svg11.dtd"><svg width="100%" height="100%" viewBox="0 0 529 72" version="1.1" xmlns="http://www.w3.org/2000/svg" xmlns:xlink="http://www.w3.org/1999/xlink" xml:space="preserve" xmlns:serif="http://www.serif.com/" style="fill-rule:evenodd;clip-rule:evenodd;stroke-linejoin:round;stroke-miterlimit:2;"><rect id="Inline---Dark---Regular" serif:id="Inline - Dark - Regular" x="-0" y="-0" width="528.384" height="72" style="fill:none;"/><clipPath id="_clip1"><rect x="-0" y="-0" width="528.384" height="72"/></clipPath><g clip-path="url(#_clip1)"><g><g><path d="M143.549,13.339c-0.242,-0.435 -0.7,-0.705 -1.198,-0.705c-7.203,-0.013 -67.004,-0.013 -67.004,-0.013c-4.178,0.355 -7.42,3.05 -9.854,7.766c-1.237,2.391 -2.883,4.545 -4.864,6.367c-4.262,3.892 -9.236,5.637 -15.019,4.955c-9.566,-0.588 -16.49,-5.303 -17.48,-19.289c-0,-0 7.704,-0.004 11.736,-0.006c2.669,-0.001 5.261,-0.888 7.371,-2.521c2.731,-2.113 4.26,-5.136 4.401,-9.331c-0,-0 -9.583,0.002 -13.762,0.003c-2.166,-0.002 -4.298,0.547 -6.194,1.595c-3.485,1.945 -5.492,5.066 -6.165,9.255c-0.471,-4.11 -2.461,-6.787 -5.488,-8.613c-2.26,-1.37 -4.848,-2.105 -7.49,-2.128c-4.258,-0.038 -12.539,-0.109 -12.539,-0.109c0.089,5.311 2.143,8.686 5.641,10.465c1.642,0.834 3.45,1.286 5.291,1.324c3.021,0.078 12.174,0.267 12.174,0.267c1.37,21.651 9.98,38.209 27.326,48.623c15.805,9.757 32.924,14.441 53.647,5.225c19.859,-8.163 31.74,-22.897 35.973,-45.281c2.747,-0.742 4.021,-2.051 2.203,-4.549c1.788,-0.713 2.169,-1.801 1.294,-3.3Z" style="fill:#303956;"/><path d="M142.142,16.413c-0.021,-0.012 -21.563,0.197 -29.352,0.273c-2.889,0.028 -5.725,0.775 -8.254,2.173c-1.308,0.723 -2.545,1.631 -3.306,2.725c-2.876,3.448 -3.064,7.2 -2.899,14.19c0.098,26.294 -20.493,31.467 -33.587,32.341c11.819,4.214 24.627,4.618 39.222,-1.873c19.859,-8.162 31.74,-22.897 35.972,-45.28c2.748,-0.742 4.022,-2.051 2.204,-4.549Z" style="fill:#fff;stroke:#303956;stroke-width:1px;stroke-linecap:round;stroke-miterlimit:1.5;"/><path d="M83.659,30.436l-0.516,-0l-0,2.756c-0,1.538 1.247,2.785 2.785,2.785l0.006,-0c1.519,-0 2.75,-1.231 2.75,-2.75l-0,-2.791l-0.517,-0l-0,2.699c-0,1.234 -1.001,2.235 -2.235,2.235l-0.001,-0c-1.254,-0 -2.272,-1.017 -2.272,-2.272l0,-2.662Z" style="fill:#fff;"/></g><path d="M175.055,53.609l5.745,0l5.154,-21.15c0.591,-2.69 1.128,-5.214 1.557,-8.276l0.215,0c0.537,3.062 1.02,5.586 1.61,8.272l5.047,21.154l5.745,0l7.355,-35.218l-4.563,-0l-3.705,19.166c-0.698,3.76 -1.288,7.52 -1.879,11.548l-0.215,0c-0.805,-4.028 -1.664,-7.841 -2.523,-11.548l-4.617,-19.166l-4.51,-0l-4.778,19.166c-0.859,3.76 -1.665,7.52 -2.416,11.548l-0.215,0c-0.591,-4.028 -1.235,-7.734 -1.933,-11.548l-3.597,-19.166l-4.778,-0l7.301,35.218Z" style="fill:#303956;fill-rule:nonzero;"/><path d="M221.021,53.609l20.828,0l0,-3.805l-16.377,-0l-0,-12.787l13.37,-0l0,-3.806l-13.37,0l-0,-11.068l15.84,-0l0,-3.752l-20.291,-0l0,35.218Z" style="fill:#303956;fill-rule:nonzero;"/><path d="M256.784,53.609l11.218,0c7.897,0 13.368,-3.43 13.368,-10.467c0,-4.728 -2.788,-7.465 -7.19,-8.269l0,-0.215c3.327,-1.071 5.15,-4.026 5.15,-7.679c-0,-6.176 -4.934,-8.588 -12.079,-8.588l-10.467,-0l-0,35.218Zm4.45,-20.237l-0,-11.444l5.426,0c5.48,0 8.273,1.558 8.273,5.642c0,3.599 -2.471,5.802 -8.488,5.802l-5.211,0Zm-0,16.7l-0,-13.27l6.124,0c6.178,0 9.616,1.988 9.616,6.34c-0,4.727 -3.546,6.93 -9.616,6.93l-6.124,-0Z" style="fill:#303956;fill-rule:nonzero;"/><path d="M323.794,54.254c7.467,-0 11.971,-4.451 11.971,-10.036c0,-5.21 -3.056,-7.627 -7.243,-9.4l-4.997,-2.148c-2.793,-1.182 -5.856,-2.471 -5.856,-5.854c0,-3.169 2.633,-5.156 6.555,-5.156c3.116,-0 5.802,1.289 8.002,3.222l2.413,-2.9c-2.466,-2.467 -6.117,-4.236 -10.415,-4.236c-6.447,0 -11.058,3.967 -11.058,9.338c-0,5.103 3.753,7.627 7.136,9.077l5.05,2.202c3.331,1.504 5.856,2.632 5.856,6.231c-0,3.437 -2.74,5.746 -7.36,5.746c-3.761,0 -7.358,-1.611 -9.878,-4.243l-2.523,2.901c3.059,3.272 7.297,5.256 12.347,5.256Z" style="fill:#303956;fill-rule:nonzero;"/><path d="M350.163,53.609l4.45,0l-0,-16.592l16.384,-0l0,16.592l4.504,0l0,-35.218l-4.504,-0l0,14.766l-16.384,0l-0,-14.766l-4.45,-0l-0,35.218Z" style="fill:#303956;fill-rule:nonzero;"/><path d="M398.702,33.907c1.289,-3.921 2.416,-7.789 3.49,-11.872l0.215,0c1.127,4.083 2.254,7.951 3.543,11.872l1.664,5.372l-10.576,-0l1.664,-5.372Zm-10.736,19.702l4.563,0l3.382,-10.739l12.831,-0l3.328,10.739l4.778,0l-11.918,-35.218l-5.046,-0l-11.918,35.218Z" style="fill:#303956;fill-rule:nonzero;"/><path d="M429.312,53.609l4.45,0l0,-13.961l5.802,0c7.736,0 12.992,-3.484 12.992,-10.897c0,-7.734 -5.309,-10.36 -13.206,-10.36l-10.038,-0l0,35.218Zm4.45,-17.606l0,-14.021l5.05,-0c6.178,-0 9.294,1.665 9.294,6.769c0,4.996 -2.954,7.252 -9.079,7.252l-5.265,0Z" style="fill:#303956;fill-rule:nonzero;"/><path d="M467.169,53.609l20.827,0l0,-3.805l-16.377,-0l-0,-12.787l13.37,-0l0,-3.806l-13.37,0l-0,-11.068l15.84,-0l0,-3.752l-20.29,-0l-0,35.218Z" style="fill:#303956;fill-rule:nonzero;"/><path d="M502.931,53.609l9.016,0c10.637,0 16.43,-6.545 16.43,-17.77c-0,-11.172 -5.793,-17.448 -16.645,-17.448l-8.801,-0l-0,35.218Zm4.45,-3.644l0,-27.93l4.029,0c8.219,0 12.355,4.942 12.355,13.804c0,8.916 -4.136,14.126 -12.355,14.126l-4.029,-0Z" style="fill:#303956;fill-rule:nonzero;"/></g></g></svg>