<svg xmlns="http://www.w3.org/2000/svg" xml:space="preserve" style="fill-rule:evenodd;clip-rule:evenodd;stroke-linejoin:round;stroke-miterlimit:2" viewBox="0 0 407 280"><path d="M0 0h406.81v279.422H0z" style="fill:none"/><clipPath id="a"><path d="M0 0h406.81v279.422H0z"/></clipPath><g clip-path="url(#a)"><path d="M10.022 277.844h3.192l7.304-27.746c.736-3.193 1.534-5.956 2.21-9.211h.245c.675 3.255 1.412 6.018 2.087 9.211l7.243 27.746h3.192l9.145-40.448h-2.823l-5.156 23.816a847.614 847.614 0 0 0-2.64 13.264h-.245c-1.044-4.483-2.148-8.843-3.192-13.264l-6.199-23.816h-3.008l-6.383 23.816c-1.105 4.421-2.149 8.781-3.069 13.264h-.246c-.92-4.483-1.841-8.843-2.762-13.264l-4.972-23.816H.938l9.084 40.448ZM60.978 277.844h22.768v-2.447H63.794v-17.811h16.207v-2.448H63.794v-15.294h19.338v-2.448H60.978v40.448ZM101.128 277.844h11.721c9.15 0 15.037-3.983 15.037-11.844 0-5.589-3.43-8.843-8.712-9.7v-.244c4.053-1.226 6.257-4.542 6.257-8.842 0-6.756-5.212-9.818-13.38-9.818h-10.923v40.448Zm2.816-22.645v-15.478h7.308c7.432 0 11.362 2.088 11.362 7.8 0 4.73-3.378 7.678-11.669 7.678h-7.001Zm0 20.32v-17.995h8.168c8.291 0 13.019 2.764 13.019 8.598 0 6.449-4.974 9.397-13.019 9.397h-8.168ZM176.511 278.581c7.984 0 12.95-4.658 12.95-10.86 0-6.202-3.799-8.658-8.528-10.746l-6.141-2.702c-2.948-1.35-7.002-3.07-7.002-7.798 0-4.421 3.624-7.245 8.967-7.245 4.053 0 7.247 1.657 9.704 4.052l1.531-1.842a15.443 15.443 0 0 0-11.235-4.781c-6.879 0-11.783 4.106-11.783 9.939 0 5.895 4.597 8.474 8.221 10.07l6.141 2.763c3.992 1.781 7.247 3.439 7.247 8.474 0 4.79-3.869 8.105-10.072 8.105-4.729 0-9.027-2.026-11.905-5.342l-1.781 1.842c3.19 3.562 7.729 6.071 13.686 6.071ZM206.474 277.844h2.816v-20.258h21.679v20.258h2.816v-40.448h-2.816v17.742H209.29v-17.742h-2.816v40.448ZM259.82 254.03c1.657-4.79 3.069-9.028 4.48-14.002h.246c1.412 4.974 2.823 9.212 4.48 14.002l2.578 7.554h-14.362l2.578-7.554Zm-11.048 23.814h2.824l4.787-13.874h16.019l4.726 13.874h2.946l-14.239-40.448h-2.824l-14.239 40.448ZM295.061 277.844h2.816v-17.373h7.616c9.028 0 14.423-3.861 14.423-11.783 0-8.353-5.518-11.292-14.669-11.292h-10.186v40.448Zm2.816-19.76v-18.302h6.694c8.353 0 12.468 2.088 12.468 8.906 0 6.633-3.992 9.396-12.222 9.396h-6.94ZM337.298 277.844h22.768v-2.447h-19.952v-17.811h16.207v-2.448h-16.207v-15.294h19.338v-2.448h-22.154v40.448ZM377.447 277.844h9.449c12.405 0 18.292-8.097 18.292-20.377 0-12.22-5.887-20.071-18.353-20.071h-9.388v40.448Zm2.817-2.386v-35.676h6.264c10.992 0 15.721 7.185 15.721 17.685 0 10.561-4.729 17.991-15.721 17.991h-6.264Z" style="fill:#fff;fill-rule:nonzero"/><path d="M402.978 34.922a1.379 1.379 0 0 0-1.118-.572c-12.442-.003-189.401-.003-189.401-.003-12.036 1.024-21.306 8.964-28.196 22.854a48.95 48.95 0 0 1-6.383 9.71c-13.344 15.868-29.501 23.313-48.903 21.022-26.854-1.649-46.292-14.887-49.073-54.15l35.232-.017a24.646 24.646 0 0 0 10.018-2.132c12.908-5.774 20.223-15.589 20.745-31.14l-40.52.009c-2.84 0-5.661.467-8.349 1.382-14.254 4.814-22.151 14.711-24.459 29.078C70.824 15.738 61.654 7.519 48.17 2.544 45.17 1.436 42 .855 38.802.828L.935.503c.321 19.247 9.84 29.438 25.397 32.625 1.398.287 2.819.447 4.246.476 7.136.165 35.224.743 35.224.743 3.844 60.782 28.016 107.267 76.713 136.504 44.368 27.389 92.428 40.538 150.605 14.665 55.75-22.915 89.104-64.279 100.986-127.118 7.714-2.083 11.29-5.757 6.186-12.769 5.576-2.224 6.278-5.745 2.686-10.707Z" style="fill:#303956;stroke:#fff;stroke-width:1px;stroke-linecap:round;stroke-miterlimit:1.5"/><path d="M399.974 45.233c-.061-.033-65.249.6-84.734.791a37.082 37.082 0 0 0-12.765 2.398c-5.837 2.207-13.628 5.97-17.353 11.329-8.076 9.678-8.602 20.212-8.139 39.835.276 73.816-57.53 88.338-94.29 90.791 33.181 11.832 69.136 12.966 110.109-5.256 55.75-22.915 89.104-64.279 100.987-127.118 7.713-2.083 11.29-5.757 6.185-12.77Z" style="fill:#fff"/><path d="M399.974 45.233c-.061-.033-65.249.6-84.734.791a37.082 37.082 0 0 0-12.765 2.398c-5.837 2.207-13.628 5.97-17.353 11.329-8.076 9.678-8.602 20.212-8.139 39.835.276 73.816-57.53 88.338-94.29 90.791 33.181 11.832 69.136 12.966 110.109-5.256 55.75-22.915 89.104-64.279 100.987-127.118 7.713-2.083 11.29-5.757 6.185-12.77Zm-.516 1.001c1.588 2.293 2.166 4.144 1.793 5.69-.279 1.158-1.104 2.093-2.312 2.894-1.372.909-3.217 1.627-5.411 2.22a1 1 0 0 0-.722.779c-11.813 62.47-44.961 103.599-100.384 126.379l-.026.011c-38.825 17.267-73.113 17.043-104.8 6.782 21.607-2.01 48.75-8.465 67.615-27.56 13.564-13.729 22.884-33.984 22.772-63.847v-.02c-.455-19.286-.031-29.658 7.907-39.17.019-.023.037-.046.054-.07 3.618-5.206 11.214-8.821 16.885-10.964a36.094 36.094 0 0 1 12.421-2.335c17.536-.171 72.09-.701 82.87-.781l1.338-.008ZM235.795 84.361h-1.451v7.736a7.82 7.82 0 0 0 7.819 7.819h.018a7.718 7.718 0 0 0 7.718-7.718v-7.837h-1.45v7.576a6.275 6.275 0 0 1-6.275 6.275h-.001a6.379 6.379 0 0 1-6.378-6.378v-7.473Z" style="fill:#fff"/></g></svg>