<svg xmlns="http://www.w3.org/2000/svg" xml:space="preserve" style="fill-rule:evenodd;clip-rule:evenodd;stroke-linejoin:round;stroke-miterlimit:2" viewBox="0 0 480 480"><path d="M0 0h480v480H0z" style="fill:none"/><path d="M46.959 361.862h3.192l7.304-27.747c.736-3.193 1.534-5.956 2.21-9.211h.245c.675 3.255 1.412 6.018 2.087 9.211l7.243 27.747h3.191l9.146-40.449h-2.823l-5.156 23.816a849.921 849.921 0 0 0-2.64 13.264h-.245c-1.044-4.483-2.148-8.842-3.192-13.264l-6.199-23.816h-3.008l-6.383 23.816c-1.105 4.422-2.149 8.781-3.069 13.264h-.246c-.92-4.483-1.841-8.842-2.762-13.264l-4.972-23.816h-3.007l9.084 40.449ZM97.915 361.862h22.768v-2.448h-19.952v-17.811h16.207v-2.448h-16.207v-15.294h19.338v-2.448H97.915v40.449ZM138.065 361.862h11.721c9.15 0 15.037-3.984 15.037-11.845 0-5.589-3.43-8.843-8.712-9.699v-.245c4.053-1.225 6.257-4.542 6.257-8.842 0-6.756-5.212-9.818-13.38-9.818h-10.923v40.449Zm2.816-22.646v-15.478h7.308c7.432 0 11.362 2.088 11.362 7.8 0 4.73-3.378 7.678-11.669 7.678h-7.001Zm0 20.321v-17.996h8.168c8.291 0 13.019 2.764 13.019 8.599 0 6.449-4.974 9.397-13.019 9.397h-8.168ZM213.448 362.598c7.984 0 12.95-4.658 12.95-10.86 0-6.202-3.799-8.658-8.528-10.746l-6.141-2.701c-2.948-1.351-7.002-3.071-7.002-7.799 0-4.421 3.624-7.245 8.967-7.245 4.053 0 7.247 1.658 9.704 4.052l1.531-1.842a15.447 15.447 0 0 0-11.235-4.781c-6.879 0-11.783 4.106-11.783 9.939 0 5.895 4.597 8.474 8.221 10.07l6.141 2.764c3.992 1.78 7.247 3.438 7.247 8.473 0 4.79-3.869 8.106-10.072 8.106-4.729 0-9.027-2.027-11.905-5.342l-1.781 1.842c3.19 3.561 7.729 6.07 13.686 6.07ZM243.411 361.862h2.816v-20.259h21.679v20.259h2.816v-40.449h-2.816v17.742h-21.679v-17.742h-2.816v40.449ZM296.757 338.047c1.657-4.79 3.069-9.028 4.48-14.002h.246c1.411 4.974 2.823 9.212 4.48 14.002l2.578 7.554h-14.362l2.578-7.554Zm-11.048 23.815h2.824l4.787-13.875h16.019l4.726 13.875h2.946l-14.239-40.449h-2.824l-14.239 40.449ZM331.998 361.862h2.816v-17.374h7.616c9.028 0 14.423-3.86 14.423-11.783 0-8.353-5.518-11.292-14.669-11.292h-10.186v40.449Zm2.816-19.76v-18.303h6.694c8.353 0 12.468 2.089 12.468 8.906 0 6.633-3.992 9.397-12.222 9.397h-6.94ZM374.235 361.862h22.768v-2.448h-19.952v-17.811h16.207v-2.448h-16.207v-15.294h19.338v-2.448h-22.154v40.449ZM414.384 361.862h9.449c12.405 0 18.292-8.097 18.292-20.378 0-12.22-5.887-20.071-18.353-20.071h-9.388v40.449Zm2.817-2.387v-35.676h6.264c10.992 0 15.721 7.185 15.721 17.685 0 10.561-4.729 17.991-15.721 17.991h-6.264Z" style="fill:#fff;fill-rule:nonzero"/><path d="M439.915 118.939a1.379 1.379 0 0 0-1.118-.572c-12.442-.003-189.401-.003-189.401-.003-12.036 1.024-21.306 8.965-28.196 22.855a48.971 48.971 0 0 1-6.383 9.709c-13.344 15.868-29.501 23.313-48.903 21.023-26.854-1.649-46.292-14.887-49.073-54.151l35.232-.017a24.646 24.646 0 0 0 10.018-2.132c12.908-5.774 20.223-15.589 20.745-31.14l-40.52.009c-2.84 0-5.661.468-8.349 1.382-14.254 4.814-22.151 14.711-24.459 29.078-1.748-15.225-10.917-23.444-24.401-28.419-3-1.108-6.17-1.689-9.368-1.716l-37.867-.324c.321 19.246 9.84 29.438 25.397 32.624 1.398.288 2.819.447 4.246.476 7.136.165 35.224.743 35.224.743 3.844 60.782 28.016 107.267 76.713 136.504 44.368 27.389 92.428 40.539 150.605 14.665 55.75-22.915 89.104-64.279 100.986-127.118 7.714-2.083 11.29-5.757 6.186-12.769 5.576-2.224 6.278-5.745 2.686-10.707Z" style="fill:#303956;stroke:#fff;stroke-width:1px;stroke-linecap:round;stroke-miterlimit:1.5"/><path d="M436.911 129.251c-.062-.034-65.249.6-84.734.79a37.06 37.06 0 0 0-12.765 2.399c-5.837 2.206-13.628 5.969-17.353 11.328-8.076 9.678-8.602 20.213-8.139 39.835.276 73.817-57.53 88.338-94.291 90.791 33.182 11.833 69.137 12.967 110.11-5.256 55.75-22.915 89.104-64.279 100.987-127.118 7.713-2.083 11.29-5.757 6.185-12.769Z" style="fill:#fff"/><path d="M436.911 129.251c-.062-.034-65.249.6-84.734.79a37.06 37.06 0 0 0-12.765 2.399c-5.837 2.206-13.628 5.969-17.353 11.328-8.076 9.678-8.602 20.213-8.139 39.835.276 73.817-57.53 88.338-94.291 90.791 33.182 11.833 69.137 12.967 110.11-5.256 55.75-22.915 89.104-64.279 100.987-127.118 7.713-2.083 11.29-5.757 6.185-12.769Zm-.516 1.001c1.588 2.292 2.166 4.143 1.793 5.689-.279 1.158-1.104 2.094-2.312 2.894-1.372.909-3.217 1.627-5.411 2.22a1 1 0 0 0-.722.779c-11.813 62.47-44.962 103.599-100.384 126.379l-.026.012c-38.825 17.266-73.113 17.042-104.8 6.781 21.607-2.01 48.749-8.465 67.615-27.559 13.564-13.729 22.884-33.985 22.772-63.848v-.019c-.455-19.286-.031-29.659 7.907-39.171.019-.023.037-.046.054-.07 3.618-5.206 11.214-8.82 16.884-10.964h.001a36.07 36.07 0 0 1 12.421-2.334c17.536-.171 72.09-.702 82.87-.782.55-.004 1.016-.006 1.338-.007ZM272.732 168.378h-1.451v7.736a7.82 7.82 0 0 0 7.819 7.819h.018a7.718 7.718 0 0 0 7.718-7.718v-7.837h-1.45v7.576a6.275 6.275 0 0 1-6.275 6.275h-.001a6.379 6.379 0 0 1-6.378-6.378v-7.473Z" style="fill:#fff"/></svg>