<?xml version="1.0" encoding="UTF-8" standalone="no"?><!DOCTYPE svg PUBLIC "-//W3C//DTD SVG 1.1//EN" "http://www.w3.org/Graphics/SVG/1.1/DTD/svg11.dtd"><svg width="100%" height="100%" viewBox="0 0 522 72" version="1.1" xmlns="http://www.w3.org/2000/svg" xmlns:xlink="http://www.w3.org/1999/xlink" xml:space="preserve" xmlns:serif="http://www.serif.com/" style="fill-rule:evenodd;clip-rule:evenodd;stroke-linejoin:round;stroke-miterlimit:2;"><rect id="Inline---Dark" serif:id="Inline - Dark" x="0" y="-0" width="521.616" height="72" style="fill:none;"/><clipPath id="_clip1"><rect x="0" y="-0" width="521.616" height="72"/></clipPath><g clip-path="url(#_clip1)"><g><g><path d="M143.549,13.339c-0.242,-0.435 -0.7,-0.705 -1.198,-0.705c-7.203,-0.013 -67.004,-0.013 -67.004,-0.013c-4.178,0.355 -7.42,3.05 -9.854,7.766c-1.237,2.391 -2.883,4.545 -4.864,6.367c-4.262,3.892 -9.236,5.637 -15.019,4.955c-9.566,-0.588 -16.49,-5.303 -17.48,-19.289c-0,-0 7.704,-0.004 11.736,-0.006c2.669,-0.001 5.261,-0.888 7.371,-2.521c2.731,-2.113 4.26,-5.136 4.401,-9.331c-0,-0 -9.583,0.002 -13.762,0.003c-2.166,-0.002 -4.298,0.547 -6.194,1.595c-3.485,1.945 -5.492,5.066 -6.165,9.255c-0.471,-4.11 -2.461,-6.787 -5.488,-8.613c-2.26,-1.37 -4.848,-2.105 -7.49,-2.128c-4.258,-0.038 -12.539,-0.109 -12.539,-0.109c0.089,5.311 2.143,8.686 5.641,10.465c1.642,0.834 3.45,1.286 5.291,1.324c3.021,0.078 12.174,0.267 12.174,0.267c1.37,21.651 9.98,38.209 27.326,48.623c15.805,9.757 32.924,14.441 53.647,5.225c19.859,-8.163 31.74,-22.897 35.973,-45.281c2.747,-0.742 4.021,-2.051 2.203,-4.549c1.788,-0.713 2.169,-1.801 1.294,-3.3Z" style="fill:#303956;"/><path d="M142.142,16.413c-0.021,-0.012 -21.563,0.197 -29.352,0.273c-2.889,0.028 -5.725,0.775 -8.254,2.173c-1.308,0.723 -2.545,1.631 -3.306,2.725c-2.876,3.448 -3.064,7.2 -2.899,14.19c0.098,26.294 -20.493,31.467 -33.587,32.341c11.819,4.214 24.627,4.618 39.222,-1.873c19.859,-8.162 31.74,-22.897 35.972,-45.28c2.748,-0.742 4.022,-2.051 2.204,-4.549Z" style="fill:#fff;stroke:#303956;stroke-width:1px;stroke-linecap:round;stroke-miterlimit:1.5;"/><path d="M83.659,30.436l-0.516,-0l-0,2.756c-0,1.538 1.247,2.785 2.785,2.785l0.006,-0c1.519,-0 2.75,-1.231 2.75,-2.75l-0,-2.791l-0.517,-0l-0,2.699c-0,1.234 -1.001,2.235 -2.235,2.235l-0.001,-0c-1.254,-0 -2.272,-1.017 -2.272,-2.272l0,-2.662Z" style="fill:#fff;"/></g><path d="M175.968,53.69l2.792,-0l6.389,-24.269c0.644,-2.793 1.342,-5.21 1.932,-8.057l0.215,0c0.591,2.847 1.235,5.264 1.825,8.057l6.336,24.269l2.791,-0l8,-35.38l-2.47,0l-4.51,20.832c-0.805,3.867 -1.557,7.68 -2.308,11.601l-0.215,0c-0.913,-3.921 -1.879,-7.734 -2.792,-11.601l-5.422,-20.832l-2.631,0l-5.583,20.832c-0.967,3.867 -1.879,7.68 -2.685,11.601l-0.214,0c-0.806,-3.921 -1.611,-7.734 -2.416,-11.601l-4.349,-20.832l-2.631,0l7.946,35.38Z" style="fill:#303956;fill-rule:nonzero;"/><path d="M220.538,53.69l19.915,-0l-0,-2.141l-17.452,-0l0,-15.579l14.176,-0l0,-2.141l-14.176,-0l0,-13.378l16.915,0l0,-2.141l-19.378,0l0,35.38Z" style="fill:#303956;fill-rule:nonzero;"/><path d="M255.656,53.69l10.252,-0c8.004,-0 13.153,-3.484 13.153,-10.361c0,-4.888 -3,-7.734 -7.62,-8.483l0,-0.214c3.544,-1.072 5.472,-3.973 5.472,-7.734c0,-5.909 -4.558,-8.588 -11.703,-8.588l-9.554,0l-0,35.38Zm2.463,-19.808l0,-13.538l6.393,-0c6.5,-0 9.938,1.826 9.938,6.823c-0,4.137 -2.955,6.715 -10.207,6.715l-6.124,0Zm0,17.774l0,-15.74l7.145,0c7.251,0 11.388,2.417 11.388,7.521c-0,5.64 -4.351,8.219 -11.388,8.219l-7.145,0Z" style="fill:#303956;fill-rule:nonzero;"/><path d="M321.592,54.334c6.984,0 11.327,-4.074 11.327,-9.499c0,-5.425 -3.322,-7.573 -7.459,-9.399l-5.372,-2.363c-2.578,-1.182 -6.124,-2.686 -6.124,-6.821c0,-3.867 3.17,-6.338 7.843,-6.338c3.546,0 6.339,1.45 8.488,3.545l1.339,-1.611c-2.145,-2.255 -5.529,-4.182 -9.827,-4.182c-6.016,-0 -10.306,3.591 -10.306,8.693c-0,5.156 4.021,7.412 7.191,8.808l5.371,2.417c3.492,1.558 6.339,3.008 6.339,7.412c0,4.189 -3.384,7.09 -8.81,7.09c-4.136,-0 -7.895,-1.773 -10.413,-4.673l-1.557,1.611c2.789,3.115 6.76,5.31 11.97,5.31Z" style="fill:#303956;fill-rule:nonzero;"/><path d="M347.8,53.69l2.463,-0l0,-17.72l18.962,-0l0,17.72l2.464,-0l-0,-35.38l-2.464,0l0,15.519l-18.962,-0l0,-15.519l-2.463,0l0,35.38Z" style="fill:#303956;fill-rule:nonzero;"/><path d="M394.461,32.86c1.449,-4.19 2.684,-7.896 3.918,-12.248l0.215,0c1.235,4.352 2.47,8.058 3.919,12.248l2.255,6.607l-12.562,-0l2.255,-6.607Zm-9.664,20.83l2.47,-0l4.187,-12.136l14.012,0l4.133,12.136l2.577,-0l-12.454,-35.38l-2.47,0l-12.455,35.38Z" style="fill:#303956;fill-rule:nonzero;"/><path d="M425.285,53.69l2.463,-0l0,-15.196l6.661,-0c7.897,-0 12.617,-3.377 12.617,-10.307c-0,-7.306 -4.827,-9.877 -12.831,-9.877l-8.91,0l-0,35.38Zm2.463,-17.284l0,-16.008l5.856,-0c7.305,-0 10.905,1.826 10.905,7.789c-0,5.802 -3.492,8.219 -10.69,8.219l-6.071,0Z" style="fill:#303956;fill-rule:nonzero;"/><path d="M462.229,53.69l19.914,-0l0,-2.141l-17.451,-0l-0,-15.579l14.176,-0l-0,-2.141l-14.176,-0l-0,-13.378l16.914,0l0,-2.141l-19.377,0l-0,35.38Z" style="fill:#303956;fill-rule:nonzero;"/><path d="M497.346,53.69l8.265,-0c10.851,-0 16,-7.083 16,-17.824c-0,-10.688 -5.149,-17.556 -16.054,-17.556l-8.211,0l0,35.38Zm2.464,-2.088l-0,-31.204l5.479,-0c9.615,-0 13.751,6.284 13.751,15.468c0,9.238 -4.136,15.736 -13.751,15.736l-5.479,0Z" style="fill:#303956;fill-rule:nonzero;"/></g></g></svg>