<svg xmlns:xlink="http://www.w3.org/1999/xlink" width="1933" xmlns="http://www.w3.org/2000/svg" height="111" id="screenshot-567d0a90-3775-11ed-85f5-ff453ccbe408" viewBox="0 0 1933 111" style="-webkit-print-color-adjust: exact;" fill="none" version="1.1"><g id="shape-567d0a90-3775-11ed-85f5-ff453ccbe408" rx="0" ry="0" style="fill: rgb(0, 0, 0);"><g id="shape-567fa2a0-3775-11ed-85f5-ff453ccbe408"><g id="fills-567fa2a0-3775-11ed-85f5-ff453ccbe408"><path rx="0" ry="0" d="M0,11L80.542,18.396C161.083,25.931,322.167,40.514,483.25,49.889C644.333,59.264,805.417,62.736,966.5,57.285C1127.583,51.625,1288.667,37.042,1449.75,33.222C1610.833,29.403,1771.917,37.042,1852.458,40.618L1933,44.333L1933,111L1852.458,111C1771.917,111,1610.833,111,1449.75,111C1288.667,111,1127.583,111,966.5,111C805.417,111,644.333,111,483.25,111C322.167,111,161.083,111,80.542,111L0,111Z" style="fill: rgb(48, 57, 86); fill-opacity: 1;"/></g></g></g></svg>