<?xml version="1.0" standalone="no"?>
<!DOCTYPE svg PUBLIC "-//W3C//DTD SVG 20010904//EN"
 "http://www.w3.org/TR/2001/REC-SVG-20010904/DTD/svg10.dtd">
<svg version="1.0" xmlns="http://www.w3.org/2000/svg"
 width="700.000000pt" height="700.000000pt" viewBox="0 0 700.000000 700.000000"
 preserveAspectRatio="xMidYMid meet">
<metadata>
Created by potrace 1.14, written by Peter Selinger 2001-2017
</metadata>
<g transform="translate(0.000000,700.000000) scale(0.100000,-0.100000)"
fill="#000000" stroke="none">
<path d="M143 5173 c-35 -12 -1 -229 53 -334 38 -77 135 -169 217 -208 105
-50 171 -59 495 -67 202 -5 292 -10 292 -18 0 -6 7 -72 15 -146 68 -610 262
-1110 588 -1515 92 -114 314 -326 442 -422 123 -92 406 -264 563 -342 534
-266 1035 -352 1547 -265 353 60 826 250 1158 466 599 390 967 942 1152 1728
l27 115 44 19 c62 25 94 67 93 119 0 23 -4 51 -8 62 -6 15 -1 28 20 53 23 26
29 42 29 78 0 39 -5 51 -33 79 l-33 33 -614 7 c-338 3 -1060 5 -1605 3 l-990
-3 -59 -22 c-155 -60 -260 -163 -372 -366 -161 -292 -416 -472 -714 -502 -81
-8 -267 9 -380 36 -281 66 -461 257 -539 570 -22 88 -41 226 -33 234 3 3 136
5 297 5 325 0 357 4 484 66 126 62 233 189 276 331 9 26 18 83 22 125 6 76 6
77 -20 83 -14 4 -187 5 -384 3 -397 -5 -412 -7 -545 -74 -98 -49 -202 -153
-250 -251 l-36 -72 -32 66 c-62 126 -202 237 -365 289 -63 21 -105 27 -200 30
-221 7 -590 11 -602 7z m6617 -823 c6 -12 10 -35 8 -52 -3 -31 -24 -48 -108
-83 -20 -9 -27 -26 -51 -135 -60 -271 -135 -489 -250 -720 -279 -564 -706
-956 -1338 -1230 -585 -254 -1049 -308 -1576 -183 -109 25 -139 43 -73 43 56
0 279 50 403 90 384 125 663 350 820 660 121 240 165 475 165 882 0 282 23
382 116 505 52 68 102 107 199 153 146 69 169 73 570 80 198 3 527 7 732 8
366 2 372 2 383 -18z m-2719 -675 c4 -75 7 -87 30 -111 16 -16 41 -28 67 -31
37 -5 45 -2 77 30 34 34 35 37 35 117 0 61 3 81 13 78 15 -6 21 -58 12 -127
-12 -95 -87 -149 -169 -120 -64 22 -86 64 -86 165 0 46 4 84 9 84 5 0 11 -38
12 -85z"/>
</g>
</svg>
